<?xml version="1.0" encoding="UTF-8" standalone="no"?>
<svg
   xmlns:dc="http://purl.org/dc/elements/1.1/"
   xmlns:cc="http://creativecommons.org/ns#"
   xmlns:rdf="http://www.w3.org/1999/02/22-rdf-syntax-ns#"
   xmlns:svg="http://www.w3.org/2000/svg"
   xmlns="http://www.w3.org/2000/svg"
   xmlns:sodipodi="http://sodipodi.sourceforge.net/DTD/sodipodi-0.dtd"
   xmlns:inkscape="http://www.inkscape.org/namespaces/inkscape"
   version="1.1"
   x="0px"
   y="0px"
   viewBox="0 0 64 64"
   xml:space="preserve"
   id="svg3414"
   inkscape:version="0.91 r13725"
   sodipodi:docname="noun_945427_cc.svg"
   width="64"
   height="64"><metadata
     id="metadata3432"><rdf:RDF><cc:Work
         rdf:about=""><dc:format>image/svg+xml</dc:format><dc:type
           rdf:resource="http://purl.org/dc/dcmitype/StillImage" /><dc:title></dc:title></cc:Work></rdf:RDF></metadata><defs
     id="defs3430" /><sodipodi:namedview
     pagecolor="#ffffff"
     bordercolor="#666666"
     borderopacity="1"
     objecttolerance="10"
     gridtolerance="10"
     guidetolerance="10"
     inkscape:pageopacity="0"
     inkscape:pageshadow="2"
     inkscape:window-width="1920"
     inkscape:window-height="1016"
     id="namedview3428"
     showgrid="false"
     inkscape:zoom="10.3375"
     inkscape:cx="17.006046"
     inkscape:cy="32.261185"
     inkscape:window-x="0"
     inkscape:window-y="27"
     inkscape:window-maximized="1"
     inkscape:current-layer="svg3414" /><path
     d="m 34.47353,49.135982 0.666,1.885 c 7.458,-2.635 13.285,-8.723 15.587,-16.285 l -1.914,-0.582 c -0.799,2.625 -2.061,5.057 -3.69,7.198 l -6.809,-0.851 -1.746,-2.037 -1.518,1.301 1.662,1.939 -1.818,7.27 c -0.14,0.052 -0.278,0.112 -0.42,0.162 z m 4.088,-6.588 5.015,0.627 c -1.82,1.939 -3.972,3.564 -6.367,4.782 l 1.352,-5.409 z"
     id="path3416"
     inkscape:connector-curvature="0" /><path
     d="m 26.80653,50.444982 c -2.846,0 -5.57,-0.523 -8.088,-1.472 l -1.817,-7.27 5.364,-6.258 9.081,0 0.56,0.653 1.52,-1.301 -0.504,-0.588 2.719,-9.063 7.283,-3.642 6.47,1.617 c 0.266,1.402 0.412,2.846 0.412,4.324 0,0.644 -0.026,1.289 -0.078,1.917 l 1.992,0.166 c 0.058,-0.684 0.086,-1.385 0.086,-2.083 0,-13.785 -11.215,-25.0000002 -25,-25.0000002 -13.785,0 -25.0000003,11.2150002 -25.0000003,25.0000002 0,13.785 11.2150003,25 25.0000003,25 0.698,0 1.399,-0.028 2.083,-0.086 l -0.166,-1.992 c -0.628,0.052 -1.273,0.078 -1.917,0.078 z m 4.256,-17 -8.512,0 -2.586,-8.619 6.842,-5.131 6.842,5.131 -2.586,8.619 z m 13.074,-13.698 1.86,-4.96 c 1.24,1.874 2.212,3.939 2.864,6.141 l -4.724,-1.181 z m 0.444,-6.882 -2.573,6.861 -7.096,3.548 -7.105,-5.329 0,-8.9650002 5.424,-3.616 c 4.505,1.313 8.445,3.965 11.35,7.5010002 z m -14.039,-8.1120002 -3.735,2.49 -3.735,-2.49 c 1.216,-0.2 2.463,-0.308 3.735,-0.308 1.272,0 2.519,0.108 3.735,0.308 z m -10.159,0.611 5.424,3.616 0,8.9650002 -7.105,5.329 -7.096,-3.548 -2.5730003,-6.861 C 11.93753,9.3289818 15.87753,6.6769818 20.38253,5.3639818 Z M 9.4765297,19.746982 l -4.724,1.181 c 0.652,-2.202 1.623,-4.267 2.864,-6.141 l 1.86,4.96 z m -5.257,3.375 6.4700003,-1.617 7.283,3.642 2.719,9.064 -5.392,6.291 -6.7980003,0.85 c -2.943,-3.867 -4.695,-8.685 -4.695,-13.907 0,-1.478 0.146,-2.922 0.413,-4.323 z m 5.8270003,20.051 5.005,-0.625 1.35,5.399 c -2.388,-1.217 -4.536,-2.838 -6.355,-4.774 z"
     id="path3418"
     inkscape:connector-curvature="0" /><path
     d="m 60.47553,40.046982 -1.832,0.801 c 0.771,1.768 1.163,3.652 1.163,5.597 0,7.72 -6.28,14 -14,14 -3.721,0 -7.176,-1.447 -9.775,-4 l 2.775,0 0,-2 -5,0 c -0.553,0 -1,0.447 -1,1 l 0,5 2,0 0,-2.41 c 2.951,2.815 6.828,4.41 11,4.41 8.822,0 16,-7.178 16,-16 0,-2.223 -0.447,-4.375 -1.331,-6.398 z"
     id="path3420"
     inkscape:connector-curvature="0" /><path
     d="m 31.80653,46.444982 c 0,-7.72 6.28,-14 14,-14 3.721,0 7.176,1.447 9.775,4 l -2.775,0 0,2 5,0 c 0.553,0 1,-0.447 1,-1 l 0,-5 -2,0 0,2.41 c -2.951,-2.815 -6.828,-4.41 -11,-4.41 -8.822,0 -16,7.178 -16,16 0,2.222 0.447,4.373 1.328,6.394 l 1.834,-0.801 c -0.771,-1.766 -1.162,-3.648 -1.162,-5.593 z"
     id="path3422"
     inkscape:connector-curvature="0" /></svg>