<?xml version="1.0" encoding="UTF-8" standalone="no"?>
<svg
   xmlns:dc="http://purl.org/dc/elements/1.1/"
   xmlns:cc="http://creativecommons.org/ns#"
   xmlns:rdf="http://www.w3.org/1999/02/22-rdf-syntax-ns#"
   xmlns:svg="http://www.w3.org/2000/svg"
   xmlns="http://www.w3.org/2000/svg"
   xmlns:sodipodi="http://sodipodi.sourceforge.net/DTD/sodipodi-0.dtd"
   xmlns:inkscape="http://www.inkscape.org/namespaces/inkscape"
   version="1.1"
   x="0px"
   y="0px"
   viewBox="0 0 53.834 53.583248"
   enable-background="new 0 0 100 100"
   xml:space="preserve"
   id="svg3590"
   inkscape:version="0.92.3 (2405546, 2018-03-11)"
   sodipodi:docname="trade.svg"
   width="53.834"
   height="53.583248"><metadata
     id="metadata3602"><rdf:RDF><cc:Work
         rdf:about=""><dc:format>image/svg+xml</dc:format><dc:type
           rdf:resource="http://purl.org/dc/dcmitype/StillImage" /><dc:title /></cc:Work></rdf:RDF></metadata><defs
     id="defs3600" /><sodipodi:namedview
     pagecolor="#ffffff"
     bordercolor="#666666"
     borderopacity="1"
     objecttolerance="10"
     gridtolerance="10"
     guidetolerance="10"
     inkscape:pageopacity="0"
     inkscape:pageshadow="2"
     inkscape:window-width="1655"
     inkscape:window-height="923"
     id="namedview3598"
     showgrid="false"
     fit-margin-top="0"
     fit-margin-left="0"
     fit-margin-right="0"
     fit-margin-bottom="0"
     inkscape:zoom="5.3400704"
     inkscape:cx="-25.769234"
     inkscape:cy="14.292"
     inkscape:window-x="45"
     inkscape:window-y="72"
     inkscape:window-maximized="0"
     inkscape:current-layer="svg3590" /><path
     d="M 7.9780061,23.47677 V 16.065704 H 42.831364 l -4.845914,4.901398 c -0.753635,0.762266 -0.753635,1.998022 0,2.759421 0.376391,0.3807 0.870242,0.571483 1.364093,0.571483 0.493851,0 0.986845,-0.190783 1.364092,-0.571483 l 8.139967,-8.232302 c 0.012,-0.01214 0.01972,-0.02689 0.03172,-0.03816 0.0746,-0.07978 0.145755,-0.1639 0.206629,-0.255823 0.02058,-0.03122 0.0343,-0.06677 0.05402,-0.09973 0.04458,-0.07631 0.08917,-0.152627 0.124321,-0.235011 0.01715,-0.04076 0.024,-0.08412 0.03857,-0.124876 0.02658,-0.07891 0.05488,-0.156963 0.07202,-0.239347 0.02486,-0.125743 0.03857,-0.254956 0.03857,-0.385903 0,-0.130946 -0.01372,-0.260159 -0.03857,-0.385902 -0.01715,-0.08412 -0.0463,-0.162166 -0.07288,-0.241081 -0.01372,-0.04076 -0.02058,-0.08326 -0.03773,-0.123142 -0.03516,-0.08672 -0.08316,-0.166502 -0.129465,-0.246284 -0.01715,-0.02948 -0.0283,-0.0607 -0.04802,-0.08932 -0.0703,-0.106665 -0.150899,-0.205526 -0.239209,-0.294847 L 40.716207,4.5042322 c -0.753637,-0.7622664 -1.974546,-0.7622664 -2.728184,0 -0.753637,0.761399 -0.753637,1.9971548 0,2.7594211 l 4.845054,4.9005307 H 6.048901 c -1.064866,0 -1.9291052,0.873267 -1.9291052,1.951194 v 9.36226 c 0,1.077926 0.8642392,1.951193 1.9291052,1.951193 1.064866,0 1.9291051,-0.874135 1.9291051,-1.952061 z m 40.3688829,5.42692 c -1.064866,0 -1.929105,0.873267 -1.929105,1.951193 V 38.26595 H 11.564427 l 4.845912,-4.901399 c 0.753637,-0.762266 0.753637,-1.998022 0,-2.75942 -0.753636,-0.762267 -1.974547,-0.7614 -2.728182,0 l -8.1399677,8.232301 c -0.012004,0.01128 -0.018862,0.02602 -0.030008,0.03729 -0.075449,0.07978 -0.1474694,0.1639 -0.2083434,0.256691 -0.01972,0.03035 -0.032581,0.06417 -0.051444,0.09539 -0.046298,0.07804 -0.091739,0.155228 -0.1260349,0.239346 -0.017148,0.03989 -0.024006,0.08239 -0.037725,0.122275 -0.026578,0.07979 -0.055729,0.1587 -0.072877,0.241951 -0.024864,0.126609 -0.038582,0.254954 -0.038582,0.385901 0,0.130946 0.013717,0.259291 0.038582,0.385902 0.017148,0.08412 0.046298,0.1639 0.072877,0.243683 0.013717,0.03989 0.021434,0.08152 0.037725,0.12054 0.03601,0.08845 0.084023,0.169104 0.1311792,0.25062 0.017148,0.02775 0.028294,0.0581 0.046298,0.08499 0.070305,0.106665 0.1500415,0.205525 0.2392091,0.295713 l 8.1373947,8.230569 c 0.376389,0.380699 0.870239,0.571482 1.36409,0.571482 0.493852,0 0.986844,-0.190783 1.364092,-0.571482 0.753638,-0.7614 0.753638,-1.997156 0,-2.759422 l -4.845054,-4.900534 h 36.783319 c 1.064866,0 1.929105,-0.873268 1.929105,-1.951194 v -9.36226 c 0,-1.077926 -0.864239,-1.951193 -1.929103,-1.951193 z"
     id="path3592"
     inkscape:connector-curvature="0"
     style="stroke-width:0.86227459;fill:#ffffff" /></svg>