<?xml version="1.0" encoding="UTF-8" standalone="no"?>
<svg
   xmlns:dc="http://purl.org/dc/elements/1.1/"
   xmlns:cc="http://creativecommons.org/ns#"
   xmlns:rdf="http://www.w3.org/1999/02/22-rdf-syntax-ns#"
   xmlns:svg="http://www.w3.org/2000/svg"
   xmlns="http://www.w3.org/2000/svg"
   xmlns:sodipodi="http://sodipodi.sourceforge.net/DTD/sodipodi-0.dtd"
   xmlns:inkscape="http://www.inkscape.org/namespaces/inkscape"
   version="1.1"
   x="0px"
   y="0px"
   viewBox="0 0 53.834 53.583248"
   enable-background="new 0 0 100 100"
   xml:space="preserve"
   id="svg3590"
   inkscape:version="0.91 r13725"
   sodipodi:docname="trade.svg"
   width="53.834"
   height="53.583248"><metadata
     id="metadata3602"><rdf:RDF><cc:Work
         rdf:about=""><dc:format>image/svg+xml</dc:format><dc:type
           rdf:resource="http://purl.org/dc/dcmitype/StillImage" /><dc:title></dc:title></cc:Work></rdf:RDF></metadata><defs
     id="defs3600" /><sodipodi:namedview
     pagecolor="#ffffff"
     bordercolor="#666666"
     borderopacity="1"
     objecttolerance="10"
     gridtolerance="10"
     guidetolerance="10"
     inkscape:pageopacity="0"
     inkscape:pageshadow="2"
     inkscape:window-width="1920"
     inkscape:window-height="1016"
     id="namedview3598"
     showgrid="false"
     fit-margin-top="0"
     fit-margin-left="0"
     fit-margin-right="0"
     fit-margin-bottom="0"
     inkscape:zoom="5.3400704"
     inkscape:cx="46.514458"
     inkscape:cy="14.292"
     inkscape:window-x="0"
     inkscape:window-y="27"
     inkscape:window-maximized="1"
     inkscape:current-layer="svg3590" /><path
     d="m 4.5,22.53725 0,-8.546 40.651,0 -5.652,5.652 c -0.879,0.879 -0.879,2.304 0,3.182 0.439,0.439 1.015,0.659 1.591,0.659 0.576,0 1.151,-0.22 1.591,-0.659 l 9.494,-9.493 c 0.014,-0.014 0.023,-0.031 0.037,-0.044 0.087,-0.092 0.17,-0.189 0.241,-0.295 0.024,-0.036 0.04,-0.077 0.063,-0.115 0.052,-0.088 0.104,-0.176 0.145,-0.271 0.02,-0.047 0.028,-0.097 0.045,-0.144 0.031,-0.091 0.064,-0.181 0.084,-0.276 0.029,-0.145 0.045,-0.294 0.045,-0.445 0,-0.151 -0.016,-0.3 -0.045,-0.445 -0.02,-0.097 -0.054,-0.187 -0.085,-0.278 -0.016,-0.047 -0.024,-0.096 -0.044,-0.142 -0.041,-0.1 -0.097,-0.192 -0.151,-0.284 -0.02,-0.034 -0.033,-0.07 -0.056,-0.103 -0.082,-0.123 -0.176,-0.237 -0.279,-0.34 l -9.491,-9.491 c -0.879,-0.879 -2.303,-0.879 -3.182,0 -0.879,0.878 -0.879,2.303 0,3.182 l 5.651,5.651 -42.903,0 c -1.242,0 -2.25,1.007 -2.25,2.25 l 0,10.796 c 0,1.243 1.008,2.25 2.25,2.25 1.242,0 2.25,-1.008 2.25,-2.251 z m 47.084,6.258 c -1.242,0 -2.25,1.007 -2.25,2.25 l 0,8.546 -40.651,0 5.652,-5.652 c 0.879,-0.879 0.879,-2.304 0,-3.182 -0.879,-0.879 -2.303,-0.878 -3.182,0 l -9.494,9.493 c -0.014,0.013 -0.022,0.03 -0.035,0.043 -0.088,0.092 -0.172,0.189 -0.243,0.296 -0.023,0.035 -0.038,0.074 -0.06,0.11 -0.054,0.09 -0.107,0.179 -0.147,0.276 -0.02,0.046 -0.028,0.095 -0.044,0.141 -0.031,0.092 -0.065,0.183 -0.085,0.279 -0.029,0.146 -0.045,0.294 -0.045,0.445 0,0.151 0.016,0.299 0.045,0.445 0.02,0.097 0.054,0.189 0.085,0.281 0.016,0.046 0.025,0.094 0.044,0.139 0.042,0.102 0.098,0.195 0.153,0.289 0.02,0.032 0.033,0.067 0.054,0.098 0.082,0.123 0.175,0.237 0.279,0.341 l 9.491,9.491 c 0.439,0.439 1.015,0.659 1.591,0.659 0.576,0 1.151,-0.22 1.591,-0.659 0.879,-0.878 0.879,-2.303 0,-3.182 l -5.651,-5.651 42.902,0 c 1.242,0 2.25,-1.007 2.25,-2.25 l 0,-10.796 c 0,-1.243 -1.008,-2.25 -2.25,-2.25 z"
     id="path3592"
     inkscape:connector-curvature="0" /></svg>