<?xml version="1.0"?>
<svg xmlns="http://www.w3.org/2000/svg" id="outline" viewBox="0 0 512 512" width="512" height="512"><path d="M440,228.24609l14.05957,3.51465a8.00478,8.00478,0,0,0,5.51855-.60547l32-16a8.00029,8.00029,0,0,0,3.84961-10.126l-19.11279-47.78223,3.645-36.45117a7.99681,7.99681,0,0,0-.80469-4.374l-16-32a7.99926,7.99926,0,0,0-6.02343-4.3418l-56-8a8.015,8.015,0,0,0-2.124-.01856L344,78.9375v-27.043A35.89421,35.89421,0,0,0,274.05371,40.543l-1.0459,3.13574-14.665,14.66406A8.00066,8.00066,0,0,0,264,72h16V88a31.79215,31.79215,0,0,0,3.57471,14.66895l-40.01221,26.6748a7.99763,7.99763,0,0,0-2.71777,3.07813l-32,64a8.00531,8.00531,0,0,0-.81153,4.30273l7.78809,85.66992-14.37305,7.73926-19.791-19.791a8.00152,8.00152,0,0,0-9.626-1.28906l-13.39453,7.6543a127.82537,127.82537,0,0,0-59.80957,76.27637l-1.98438,6.94433a51.60075,51.60075,0,0,0-13.61425,2.56152l-12.583,4.19434a35.471,35.471,0,0,1-27.26074-1.93652l-15.80665-7.90332A7.99951,7.99951,0,0,0,16,368V488a8.00039,8.00039,0,0,0,8,8H312a8.00054,8.00054,0,0,0,7.69238-5.80176l31.65723-110.7998,15.12207-22.6836,9.93848,29.81543a8.01375,8.01375,0,0,0,1.249,2.34766l80,104A8.00015,8.00015,0,0,0,464,496h24a7.99987,7.99987,0,0,0,7.39746-11.0459L440,350.417V228.24609Zm37.83789-24.10937-22.76855,11.38476-29.12891-7.28222a8.00008,8.00008,0,0,0-5.93848.83105l-24.32007,14.03076-7.54565-11.31884L411.793,199.044a8.00572,8.00572,0,0,0,3.79687-4.51368l7.13184-21.39648,5.81323-3.87549,3.51392,31.62549A8.00054,8.00054,0,0,0,440,208h24a7.99881,7.99881,0,0,0,7.96-7.2041l.90845-9.08374Zm-236.749,108.15234L232.687,295.48535l141.29932-76.084,7.80786,11.71191Zm29.89453-98.83691,21.96777-10.9834L312.17651,234.511l-52.10766,28.05786Zm23.39746-98.75806a31.9685,31.9685,0,0,0,48.80029-19.5293L352,94.0625V130.584l-30.07324,12.0293L294.15723,114.843Zm19.96191,42.96314a8.00019,8.00019,0,0,0,8.62793,1.7705l40-16A7.99873,7.99873,0,0,0,368,136V92.0625l5.3-.6626,27.20727,47.61255,7.16651,28.66626L401.41406,186.46,326.28,226.91675l-23.26441-38.77417-29.7019-59.40381,7.26636-4.84424Zm103.21485-16.41016,7.584-2.52832,1.40405,12.63623-5.53808,3.6919Zm46.252-19.73926L456.75977,192h-9.59961l-6.91065-62.199,15.11255-25.18775ZM399.92871,88.07129l43.01172,6.14453L426.66235,121.346l-14.97046,4.99023L390.49976,89.25ZM285.65723,53.65723a8.00738,8.00738,0,0,0,1.93164-3.127l1.64355-4.92675A19.89417,19.89417,0,0,1,328,51.89453V56H283.31348ZM328,72V88a16,16,0,0,1-32,0V72Zm-73.79492,69.47754,5.69189-3.79468,25.36988,50.7395-20.91626,10.458-29.88233-17.92944ZM224.17285,201.542l3.11865-6.23706,27.64795,16.58887-13.48877,60.70044L231.137,278.14746ZM114.21191,361.37988a111.91061,111.91061,0,0,1,52.36231-66.77929l8.08984-4.62305,19.67871,19.67969a8.00026,8.00026,0,0,0,9.4502,1.38672l14.80005-7.96924,8.6123,17.22461-15.20337,8.771a7.99882,7.99882,0,0,0-3.76269,8.87012l6.44336,25.77344L214.11035,364a112.2521,112.2521,0,0,1-100.64648-.00293ZM32,480V380.94434l4.22852,2.11425a51.37429,51.37429,0,0,0,39.47753,2.80567l12.582-4.19434a35.80373,35.80373,0,0,1,28.63574,2.66113l44.959,24.97754a35.751,35.751,0,0,1,13.27832,12.84375l3.04688,5.07813a51.60349,51.60349,0,0,0,51.65332,24.585,35.87241,35.87241,0,0,1,34.76269,15.542L273.05176,480Zm195.59863-44.02441a35.635,35.635,0,0,1-35.66992-16.97754l-3.04687-5.07715a51.77949,51.77949,0,0,0-19.22852-18.59863l-6.14429-3.41358c.0896.00049.17945.0044.26929.0044a128.43035,128.43035,0,0,0,57.4873-13.60254l6.31153-3.15528a7.99817,7.99817,0,0,0,4.18359-9.0957l-6.53613-26.14551L313.26,289.125l-24.77856,68.14062a8.03576,8.03576,0,0,0-.46583,2.23536l-6.52,104.32031-3.55909-5.33887A51.971,51.971,0,0,0,227.59863,435.97559ZM337.34375,371.5625a8.01379,8.01379,0,0,0-1.03613,2.23926L305.96582,480h-9.4502l7.39649-118.34961,30.89355-84.956L424,225.23657V275.4707l-36.11621,21.66895a8.00472,8.00472,0,0,0-2.54,2.42285ZM476.05469,480h-8.11524l-76.77636-99.80859-13.44727-40.34327,19.94238-29.91357L424,294.12988V352a8.00562,8.00562,0,0,0,.60254,3.0459Z"/></svg>
