<?xml version="1.0" encoding="UTF-8" standalone="no"?>
<svg
   xmlns:dc="http://purl.org/dc/elements/1.1/"
   xmlns:cc="http://creativecommons.org/ns#"
   xmlns:rdf="http://www.w3.org/1999/02/22-rdf-syntax-ns#"
   xmlns:svg="http://www.w3.org/2000/svg"
   xmlns="http://www.w3.org/2000/svg"
   xmlns:sodipodi="http://sodipodi.sourceforge.net/DTD/sodipodi-0.dtd"
   xmlns:inkscape="http://www.inkscape.org/namespaces/inkscape"
   version="1.1"
   x="0px"
   y="0px"
   viewBox="0 0 50 50"
   enable-background="new 0 0 100 100"
   xml:space="preserve"
   id="svg3590"
   inkscape:version="0.92.3 (2405546, 2018-03-11)"
   sodipodi:docname="untrade.svg"
   width="50"
   height="50"><metadata
     id="metadata3602"><rdf:RDF><cc:Work
         rdf:about=""><dc:format>image/svg+xml</dc:format><dc:type
           rdf:resource="http://purl.org/dc/dcmitype/StillImage" /><dc:title /></cc:Work></rdf:RDF></metadata><defs
     id="defs3600" /><sodipodi:namedview
     pagecolor="#ffffff"
     bordercolor="#666666"
     borderopacity="1"
     objecttolerance="10"
     gridtolerance="10"
     guidetolerance="10"
     inkscape:pageopacity="0"
     inkscape:pageshadow="2"
     inkscape:window-width="1312"
     inkscape:window-height="898"
     id="namedview3598"
     showgrid="false"
     fit-margin-top="0"
     fit-margin-left="0"
     fit-margin-right="0"
     fit-margin-bottom="0"
     inkscape:zoom="5.3400704"
     inkscape:cx="25.433316"
     inkscape:cy="10.403976"
     inkscape:window-x="45"
     inkscape:window-y="72"
     inkscape:window-maximized="0"
     inkscape:current-layer="svg3590" /><path
     d="m 11.535853,22.257005 v -5.19253 h 24.12986 l -3.354947,3.434144 c -0.521762,0.534078 -0.521762,1.399905 0,1.933376 0.260585,0.266735 0.60249,0.400406 0.944395,0.400406 0.341906,0 0.683218,-0.133671 0.944395,-0.400406 l 5.635505,-5.767928 c 0.0083,-0.0085 0.01365,-0.01884 0.02197,-0.02673 0.05164,-0.0559 0.100909,-0.114835 0.143053,-0.179241 0.01424,-0.02188 0.02374,-0.04678 0.03739,-0.06987 0.03087,-0.05347 0.06174,-0.106938 0.08607,-0.164659 0.01187,-0.02855 0.01662,-0.05894 0.02672,-0.08749 0.0184,-0.05529 0.03799,-0.109975 0.04987,-0.167696 0.01721,-0.0881 0.02672,-0.178634 0.02672,-0.270382 0,-0.09175 -0.0095,-0.182279 -0.02672,-0.27038 -0.01187,-0.05894 -0.03205,-0.113621 -0.05046,-0.168913 -0.0095,-0.02855 -0.01424,-0.05833 -0.02612,-0.08628 -0.02434,-0.06076 -0.05757,-0.116658 -0.08963,-0.172557 -0.01187,-0.02067 -0.01958,-0.04253 -0.03324,-0.06258 -0.04867,-0.07473 -0.104472,-0.144001 -0.165612,-0.206583 l -5.63372,-5.7667179 c -0.521762,-0.5340784 -1.367028,-0.5340784 -1.888789,0 -0.521763,0.5334723 -0.521763,1.3992979 0,1.9333769 l 3.354351,3.433527 H 10.200286 c -0.7372342,0 -1.3355686,0.611851 -1.3355686,1.367096 v 6.559626 c 0,0.755245 0.5983344,1.367096 1.3355686,1.367096 0.737233,0 1.335567,-0.612459 1.335567,-1.367705 z m 27.948398,3.802348 c -0.737232,0 -1.335568,0.611852 -1.335568,1.367096 v 5.192533 h -24.12986 l 3.354948,-3.434145 c 0.521762,-0.534077 0.521762,-1.399905 0,-1.933376 -0.521763,-0.534078 -1.367028,-0.533471 -1.888791,0 l -5.6355037,5.767927 c -0.00832,0.0079 -0.013058,0.01824 -0.020776,0.02612 -0.052236,0.0559 -0.1020966,0.114837 -0.1442412,0.17985 -0.013652,0.02127 -0.022557,0.04496 -0.035615,0.06685 -0.032054,0.05469 -0.063514,0.108759 -0.087257,0.167696 -0.011872,0.02795 -0.016621,0.05773 -0.026118,0.08567 -0.018402,0.05591 -0.038583,0.111191 -0.050456,0.16952 -0.017214,0.08871 -0.026712,0.178634 -0.026712,0.270381 0,0.09175 0.0095,0.181672 0.026712,0.270381 0.011872,0.05894 0.032054,0.114837 0.050456,0.170734 0.0095,0.02796 0.014839,0.05712 0.026118,0.08446 0.024931,0.06198 0.058172,0.11848 0.090819,0.175596 0.011872,0.01944 0.019589,0.04071 0.032054,0.05954 0.048675,0.07473 0.1038775,0.144 0.1656105,0.207191 l 5.6337244,5.766712 c 0.260584,0.266735 0.602488,0.400407 0.944393,0.400407 0.341906,0 0.683217,-0.133672 0.944397,-0.400407 0.521761,-0.533471 0.521761,-1.399299 0,-1.933378 L 14.01823,35.353174 h 25.466021 c 0.737234,0 1.335568,-0.611851 1.335568,-1.367095 v -6.559628 c 0,-0.755244 -0.598334,-1.367096 -1.335568,-1.367096 z"
     id="path3592"
     inkscape:connector-curvature="0"
     style="stroke-width:0.60055107" /><ellipse
     style="fill:none;stroke:#000000;stroke-width:1.90830779;stroke-miterlimit:4;stroke-dasharray:none;stroke-opacity:1"
     id="path4159"
     cx="25.093632"
     cy="25"
     rx="19.832418"
     ry="20.300577" /><path
     style="fill:none;fill-rule:evenodd;stroke:#000000;stroke-width:1.80183601;stroke-linecap:butt;stroke-linejoin:miter;stroke-miterlimit:4;stroke-dasharray:none;stroke-opacity:1"
     d="M 12.26089,11.077771 38.859664,40.413865"
     id="path4171"
     inkscape:connector-curvature="0" /></svg>