P2
# CREATOR: GIMP PNM Filter Version 1.1
11 11
1
1 1 1 1 0 0 0 1 1 1 1
1 1 1 1 0 0 0 1 1 1 1
1 1 1 1 0 0 0 1 1 1 1
1 1 1 1 0 0 0 1 1 1 1
1 1 1 1 0 0 0 1 1 1 1
0 0 0 0 0 0 0 0 0 0 0
1 0 0 0 0 0 0 0 0 0 1
1 1 0 0 0 0 0 0 0 1 1
1 1 1 0 0 0 0 0 1 1 1
1 1 1 1 0 0 0 1 1 1 1
1 1 1 1 1 0 1 1 1 1 1 