<?xml version="1.0" encoding="UTF-8" standalone="no"?>
<!-- Created with Inkscape (http://www.inkscape.org/) -->

<svg
   xmlns:dc="http://purl.org/dc/elements/1.1/"
   xmlns:cc="http://creativecommons.org/ns#"
   xmlns:rdf="http://www.w3.org/1999/02/22-rdf-syntax-ns#"
   xmlns:svg="http://www.w3.org/2000/svg"
   xmlns="http://www.w3.org/2000/svg"
   xmlns:sodipodi="http://sodipodi.sourceforge.net/DTD/sodipodi-0.dtd"
   xmlns:inkscape="http://www.inkscape.org/namespaces/inkscape"
   width="48"
   height="48"
   id="svg4020"
   version="1.1"
   inkscape:version="0.48.2 r9819"
   sodipodi:docname="ic_menu_cleanup 48x48.svg">
  <defs
     id="defs4022" />
  <sodipodi:namedview
     id="base"
     pagecolor="#ffffff"
     bordercolor="#666666"
     borderopacity="1.0"
     inkscape:pageopacity="0.0"
     inkscape:pageshadow="2"
     inkscape:zoom="5.6"
     inkscape:cx="-19.46604"
     inkscape:cy="18.800736"
     inkscape:document-units="px"
     inkscape:current-layer="layer1"
     showgrid="true"
     inkscape:window-width="1280"
     inkscape:window-height="921"
     inkscape:window-x="-4"
     inkscape:window-y="-4"
     inkscape:window-maximized="1">
    <inkscape:grid
       type="xygrid"
       id="grid4028"
       empspacing="5"
       visible="true"
       enabled="true"
       snapvisiblegridlinesonly="true" />
  </sodipodi:namedview>
  <metadata
     id="metadata4025">
    <rdf:RDF>
      <cc:Work
         rdf:about="">
        <dc:format>image/svg+xml</dc:format>
        <dc:type
           rdf:resource="http://purl.org/dc/dcmitype/StillImage" />
        <dc:title></dc:title>
      </cc:Work>
    </rdf:RDF>
  </metadata>
  <g
     inkscape:label="Layer 1"
     inkscape:groupmode="layer"
     id="layer1"
     transform="translate(0,-1004.3622)">
    <path
       sodipodi:type="inkscape:offset"
       inkscape:radius="0"
       inkscape:original="M 345.46875 81.21875 C 344.72902 81.21875 344.58885 81.216946 344.1875 81.34375 C 343.38257 81.598067 342.58999 82.062891 342.09375 82.5625 C 341.77475 82.883678 341.3938 83.609086 341.3125 84 C 341.22298 84.429863 341.20965 85.39857 341.3125 85.875 C 341.62528 87.323718 342.67136 89.255117 344.28125 91.375 C 345.11315 92.470448 345.86052 93.350514 347.625 95.3125 C 349.88811 97.828934 350.0277 98.00649 349.78125 98.21875 C 349.71707 98.27403 348.7788 98.83901 347.71875 99.5 L 345.8125 100.71875 L 347.59375 102.3125 L 349.375 103.90625 L 349.4375 104.9375 C 349.7039 108.73495 350.42358 112.38509 351.5 115.59375 C 352.75958 119.3484 354.57923 122.63537 356.75 125.03125 C 358.60572 127.07942 360.91415 128.72525 362.34375 129 C 362.8397 129.0953 363.10304 129.10355 363.90625 129.03125 C 368.12419 128.65151 376.27662 124.92638 386.5 118.6875 C 388.86489 117.2443 389.15185 117.0443 389.09375 117 C 389.06814 116.98044 388.78792 116.87825 388.46875 116.78125 C 387.80653 116.57996 386.40432 116.0407 385.75 115.75 C 384.02903 114.98541 381.76275 113.67389 380 112.375 C 378.11737 110.98779 376.49326 109.60049 372.6875 106.09375 C 369.08179 102.77133 367.39223 101.30248 365.59375 100.03125 C 364.31686 99.128703 362.92224 98.30821 361.84375 97.8125 C 361.35492 97.587809 361.3038 97.559731 361.25 97.375 C 361.21737 97.26308 360.98011 96.434191 360.71875 95.53125 C 360.04346 93.198116 360.10511 93.38609 359.96875 93.40625 C 359.90374 93.415893 359.0438 93.746264 358.0625 94.125 C 356.70527 94.648847 356.2629 94.79153 356.1875 94.75 C 356.09406 94.698622 355.8854 94.240358 354.90625 91.9375 C 353.67009 89.030181 352.1515 86.273578 350.90625 84.65625 C 349.78011 83.193626 348.69408 82.234435 347.5625 81.6875 C 346.74383 81.29183 346.42786 81.21875 345.46875 81.21875 z "
       style="opacity:0.6;fill:#333333;fill-opacity:0.20000000000000001;fill-rule:nonzero;stroke:#221733;stroke-width:0.02301140000000000;stroke-linecap:butt;stroke-linejoin:round;stroke-miterlimit:4;stroke-opacity:0.20000000000000001;stroke-dasharray:none"
       id="path3931"
       d="m 345.46875,81.21875 c -0.73973,0 -0.8799,-0.0018 -1.28125,0.125 -0.80493,0.254317 -1.59751,0.719141 -2.09375,1.21875 -0.319,0.321178 -0.69995,1.046586 -0.78125,1.4375 -0.0895,0.429863 -0.10285,1.39857 0,1.875 0.31278,1.448718 1.35886,3.380117 2.96875,5.5 0.8319,1.095448 1.57927,1.975514 3.34375,3.9375 2.26311,2.516434 2.4027,2.69399 2.15625,2.90625 -0.0642,0.05528 -1.00245,0.62026 -2.0625,1.28125 l -1.90625,1.21875 1.78125,1.59375 1.78125,1.59375 0.0625,1.03125 c 0.2664,3.79745 0.98608,7.44759 2.0625,10.65625 1.25958,3.75465 3.07923,7.04162 5.25,9.4375 1.85572,2.04817 4.16415,3.694 5.59375,3.96875 0.49595,0.0953 0.75929,0.10355 1.5625,0.0312 4.21794,-0.37974 12.37037,-4.10487 22.59375,-10.34375 2.36489,-1.4432 2.65185,-1.6432 2.59375,-1.6875 -0.0256,-0.0196 -0.30583,-0.12175 -0.625,-0.21875 -0.66222,-0.20129 -2.06443,-0.74055 -2.71875,-1.03125 -1.72097,-0.76459 -3.98725,-2.07611 -5.75,-3.375 -1.88263,-1.38721 -3.50674,-2.77451 -7.3125,-6.28125 -3.60571,-3.32242 -5.29527,-4.79127 -7.09375,-6.0625 -1.27689,-0.902547 -2.67151,-1.72304 -3.75,-2.21875 -0.48883,-0.224691 -0.53995,-0.252769 -0.59375,-0.4375 -0.0326,-0.11192 -0.26989,-0.940809 -0.53125,-1.84375 -0.67529,-2.333134 -0.61364,-2.14516 -0.75,-2.125 -0.065,0.0096 -0.92495,0.340014 -1.90625,0.71875 -1.35723,0.523847 -1.7996,0.66653 -1.875,0.625 -0.0934,-0.05138 -0.3021,-0.509642 -1.28125,-2.8125 -1.23616,-2.907319 -2.75475,-5.663922 -4,-7.28125 -1.12614,-1.462624 -2.21217,-2.421815 -3.34375,-2.96875 -0.81867,-0.39567 -1.13464,-0.46875 -2.09375,-0.46875 z"
       transform="matrix(1.0003125,0,0,1.0003002,-341.28439,923.18158)" />
    <path
       style="opacity:0.8;fill:#ffffff;fill-opacity:1;fill-rule:nonzero;stroke:#333333;stroke-width:0.10000000000000001;stroke-linecap:butt;stroke-linejoin:round;stroke-miterlimit:4;stroke-opacity:0.20000000000000001;stroke-dasharray:none"
       d="M 19.806831,47.212398 C 13.956284,44.054527 9.6791046,35.765503 8.5030398,25.306051 L 8.2105691,22.704936 6.6086002,21.230469 c -0.881083,-0.810957 -1.6019691,-1.56509 -1.6019691,-1.675852 0,-0.110762 0.7898535,-0.670628 1.7552297,-1.244147 0.9653763,-0.57352 1.819807,-1.147251 1.8987348,-1.274959 C 8.7395233,16.907803 7.518805,15.290125 5.9478882,13.440672 1.2390404,7.8969056 0.06743308,5.8467578 0.26267842,3.4923559 0.3928449,1.9227193 0.86828244,1.2604235 2.3549807,0.57772896 5.7907605,-0.9999872 9.0935267,1.5511815 12.465126,8.3871477 c 0.938221,1.9022563 1.861424,3.8279853 2.051563,4.2793973 0.407506,0.967465 0.683947,0.990565 2.738042,0.228798 l 1.515228,-0.561927 0.637974,2.013676 0.637974,2.013677 2.029396,1.166325 c 2.510496,1.44282 4.37948,2.932472 9.701285,7.732293 7.098968,6.402675 9.60378,8.151496 14.251436,9.950136 l 1.751713,0.677911 -1.372906,0.876098 C 40.506,40.529047 30.927052,45.444926 26.867443,46.791066 c -1.366943,0.45327 -3.236693,0.883603 -4.154997,0.956294 -1.468961,0.116278 -1.818201,0.05198 -2.905615,-0.534962 z"
       id="path3758"
       inkscape:connector-curvature="0"
       transform="translate(0,1004.3622)" />
  </g>
</svg>
