/* XPM */
static char * hint_xpm[] = {
"8 11 3 1",
" 	c None",
".	c #FFFFFF",
"+	c #000000",
".++++++.",
"+++..+++",
"++.++.++",
"+.++++.+",
"+.++++.+",
"++.++.++",
"++.++.++",
"+++..+++",
"+++..+++",
"+++..+++",
".++++++."};
