/* XPM */
static char * value_xpm[] = {
"8 10 5 1",
" 	c None",
".	c #0F0F0F",
"+	c #2F2F2F",
"@	c #000000",
"#	c #FFFFFF",
".+@@@@@@",
"+##@@@#@",
"@.#@@#@@",
"@###@#@@",
"@@@@#@@@",
"@@@#@#@@",
"@@#@#@#@",
"@@#@###@",
"@#@@#@#@",
"@@@@@@@@"};
